<svg width="213" height="51" viewBox="0 0 213 51" fill="none" xmlns="http://www.w3.org/2000/svg">
<path d="M70.5019 41.8445C68.3019 41.8445 66.2632 41.4485 64.3859 40.6565C62.5085 39.8352 60.8805 38.7059 59.5019 37.2685C58.1525 35.8019 57.0965 34.0712 56.3339 32.0765C55.5712 30.0819 55.1899 27.8965 55.1899 25.5205C55.1899 23.1445 55.5565 20.9739 56.2899 19.0085C57.0525 17.0139 58.1085 15.2979 59.4579 13.8605C60.8365 12.3939 62.4645 11.2645 64.3419 10.4725C66.2192 9.68054 68.2579 9.28454 70.4579 9.28454C72.9219 9.28454 75.1365 9.78321 77.1019 10.7805C79.0672 11.7485 80.6659 13.1272 81.8979 14.9165C83.1592 16.7059 83.9365 18.7885 84.2299 21.1645H79.6539C79.2725 18.6712 78.2605 16.7352 76.6179 15.3565C75.0045 13.9485 72.9659 13.2445 70.5019 13.2445C68.4192 13.2445 66.5712 13.7579 64.9579 14.7845C63.3739 15.7819 62.1419 17.2045 61.2619 19.0525C60.3819 20.8712 59.9419 23.0272 59.9419 25.5205C59.9419 27.9845 60.3819 30.1552 61.2619 32.0325C62.1712 33.8805 63.4179 35.3179 65.0019 36.3445C66.5859 37.3712 68.4192 37.8845 70.5019 37.8845C72.9659 37.8845 75.0192 37.1952 76.6619 35.8165C78.3339 34.4085 79.3459 32.4579 79.6979 29.9645H84.3179C83.9952 32.3699 83.2032 34.4672 81.9419 36.2565C80.6805 38.0165 79.0672 39.3952 77.1019 40.3925C75.1659 41.3605 72.9659 41.8445 70.5019 41.8445ZM101.589 41.4045C101.442 40.8472 101.339 40.2312 101.281 39.5565C101.251 38.8819 101.237 38.0605 101.237 37.0925H101.017V26.4005C101.017 24.9632 100.65 23.8925 99.9165 23.1885C99.2125 22.4552 98.0832 22.0885 96.5285 22.0885C95.0325 22.0885 93.8299 22.3819 92.9205 22.9685C92.0405 23.5552 91.5272 24.3912 91.3805 25.4765H87.0245C87.2299 23.3645 88.1832 21.6779 89.8845 20.4165C91.5859 19.1552 93.8592 18.5245 96.7045 18.5245C99.6379 18.5245 101.838 19.2139 103.305 20.5925C104.771 21.9419 105.505 23.9365 105.505 26.5765V37.0925C105.505 37.7672 105.549 38.4565 105.637 39.1605C105.725 39.8645 105.857 40.6125 106.033 41.4045H101.589ZM93.8445 41.8445C91.5565 41.8445 89.7379 41.2872 88.3885 40.1725C87.0392 39.0285 86.3645 37.4885 86.3645 35.5525C86.3645 33.5579 87.0685 31.9885 88.4765 30.8445C89.9139 29.6712 91.9672 28.8792 94.6365 28.4685L102.029 27.2805V30.4925L95.3405 31.5485C93.8445 31.7832 92.7152 32.1792 91.9525 32.7365C91.2192 33.2939 90.8525 34.1005 90.8525 35.1565C90.8525 36.1832 91.1899 36.9605 91.8645 37.4885C92.5685 37.9872 93.5805 38.2365 94.9005 38.2365C96.6605 38.2365 98.1125 37.8112 99.2565 36.9605C100.43 36.1099 101.017 35.0392 101.017 33.7485L101.589 37.0045C101.061 38.5592 100.122 39.7619 98.7725 40.6125C97.4232 41.4339 95.7805 41.8445 93.8445 41.8445ZM110.824 41.4045V18.9645H115.18V24.5525H115.4V41.4045H110.824ZM115.4 29.7005L114.828 24.3765C115.356 22.4699 116.265 21.0179 117.556 20.0205C118.847 19.0232 120.387 18.5245 122.176 18.5245C122.851 18.5245 123.32 18.5832 123.584 18.7005V23.0125C123.437 22.9539 123.232 22.9245 122.968 22.9245C122.704 22.8952 122.381 22.8805 122 22.8805C119.8 22.8805 118.143 23.4525 117.028 24.5965C115.943 25.7405 115.4 27.4419 115.4 29.7005ZM138.756 41.8005C136.644 41.8005 134.884 41.3019 133.476 40.3045C132.097 39.2779 131.188 37.8552 130.748 36.0365L131.364 35.9485V50.4245H126.788V18.9645H131.144V24.1125L130.704 23.9805C131.173 22.2792 132.17 20.9445 133.696 19.9765C135.221 19.0085 137.01 18.5245 139.064 18.5245C141.088 18.5245 142.833 19.0085 144.3 19.9765C145.796 20.9445 146.94 22.2939 147.732 24.0245C148.553 25.7552 148.964 27.7792 148.964 30.0965C148.964 32.4432 148.538 34.4965 147.688 36.2565C146.837 38.0165 145.649 39.3805 144.124 40.3485C142.598 41.3165 140.809 41.8005 138.756 41.8005ZM137.788 38.0165C139.782 38.0165 141.366 37.3125 142.54 35.9045C143.713 34.4965 144.3 32.5605 144.3 30.0965C144.3 27.6619 143.713 25.7699 142.54 24.4205C141.366 23.0419 139.768 22.3525 137.744 22.3525C135.749 22.3525 134.15 23.0565 132.948 24.4645C131.774 25.8432 131.188 27.7645 131.188 30.2285C131.188 32.6339 131.774 34.5405 132.948 35.9485C134.15 37.3272 135.764 38.0165 137.788 38.0165ZM166.839 41.4045C166.693 40.8472 166.59 40.2312 166.531 39.5565C166.502 38.8819 166.487 38.0605 166.487 37.0925H166.267V26.4005C166.267 24.9632 165.901 23.8925 165.167 23.1885C164.463 22.4552 163.334 22.0885 161.779 22.0885C160.283 22.0885 159.081 22.3819 158.171 22.9685C157.291 23.5552 156.778 24.3912 156.631 25.4765H152.275C152.481 23.3645 153.434 21.6779 155.135 20.4165C156.837 19.1552 159.11 18.5245 161.955 18.5245C164.889 18.5245 167.089 19.2139 168.555 20.5925C170.022 21.9419 170.755 23.9365 170.755 26.5765V37.0925C170.755 37.7672 170.799 38.4565 170.887 39.1605C170.975 39.8645 171.107 40.6125 171.283 41.4045H166.839ZM159.095 41.8445C156.807 41.8445 154.989 41.2872 153.639 40.1725C152.29 39.0285 151.615 37.4885 151.615 35.5525C151.615 33.5579 152.319 31.9885 153.727 30.8445C155.165 29.6712 157.218 28.8792 159.887 28.4685L167.279 27.2805V30.4925L160.591 31.5485C159.095 31.7832 157.966 32.1792 157.203 32.7365C156.47 33.2939 156.103 34.1005 156.103 35.1565C156.103 36.1832 156.441 36.9605 157.115 37.4885C157.819 37.9872 158.831 38.2365 160.151 38.2365C161.911 38.2365 163.363 37.8112 164.507 36.9605C165.681 36.1099 166.267 35.0392 166.267 33.7485L166.839 37.0045C166.311 38.5592 165.373 39.7619 164.023 40.6125C162.674 41.4339 161.031 41.8445 159.095 41.8445ZM184.72 41.8445C182.11 41.8445 180.188 41.2432 178.956 40.0405C177.754 38.8085 177.152 37.0045 177.152 34.6285V13.8165L181.684 12.1005V34.6725C181.684 35.8459 181.992 36.7112 182.608 37.2685C183.224 37.8259 184.222 38.1045 185.6 38.1045C186.128 38.1045 186.598 38.0605 187.008 37.9725C187.419 37.8845 187.771 37.7819 188.064 37.6645V41.3605C187.742 41.5072 187.287 41.6245 186.7 41.7125C186.114 41.8005 185.454 41.8445 184.72 41.8445ZM172.664 22.6165V18.9645H188.064V22.6165H172.664ZM205.298 41.4045C205.151 40.8472 205.049 40.2312 204.99 39.5565C204.961 38.8819 204.946 38.0605 204.946 37.0925H204.726V26.4005C204.726 24.9632 204.359 23.8925 203.626 23.1885C202.922 22.4552 201.793 22.0885 200.238 22.0885C198.742 22.0885 197.539 22.3819 196.63 22.9685C195.75 23.5552 195.237 24.3912 195.09 25.4765H190.734C190.939 23.3645 191.893 21.6779 193.594 20.4165C195.295 19.1552 197.569 18.5245 200.414 18.5245C203.347 18.5245 205.547 19.2139 207.014 20.5925C208.481 21.9419 209.214 23.9365 209.214 26.5765V37.0925C209.214 37.7672 209.258 38.4565 209.346 39.1605C209.434 39.8645 209.566 40.6125 209.742 41.4045H205.298ZM197.554 41.8445C195.266 41.8445 193.447 41.2872 192.098 40.1725C190.749 39.0285 190.074 37.4885 190.074 35.5525C190.074 33.5579 190.778 31.9885 192.186 30.8445C193.623 29.6712 195.677 28.8792 198.346 28.4685L205.738 27.2805V30.4925L199.05 31.5485C197.554 31.7832 196.425 32.1792 195.662 32.7365C194.929 33.2939 194.562 34.1005 194.562 35.1565C194.562 36.1832 194.899 36.9605 195.574 37.4885C196.278 37.9872 197.29 38.2365 198.61 38.2365C200.37 38.2365 201.822 37.8112 202.966 36.9605C204.139 36.1099 204.726 35.0392 204.726 33.7485L205.298 37.0045C204.77 38.5592 203.831 39.7619 202.482 40.6125C201.133 41.4339 199.49 41.8445 197.554 41.8445Z" fill="white"/>
<path fill-rule="evenodd" clip-rule="evenodd" d="M24.3415 38.7952C31.7326 37.8308 36.7551 31.5582 36.9333 24.4046C36.6537 16.4254 31.2644 11.1283 24.2579 10.0675C23.1967 9.90681 22.3454 9.03786 22.3454 7.96454V5.12049C22.3453 5.12049 22.3452 5.12049 22.3451 5.12049C11.6769 5.12049 3.06115 13.7725 3.06115 24.4045C3.06115 35.0366 11.6769 43.6885 22.3452 43.6886C22.3452 43.6886 22.3453 43.6886 22.3454 43.6886V40.9234C22.3454 39.8188 23.2462 38.9381 24.3415 38.7952ZM22.3571 2.1205C22.4657 1.11751 23.3175 0.335168 24.3457 0.413207C37.0262 1.37563 46.4121 11.4474 46.4121 24.4046C46.4121 37.3617 37.0262 47.4335 24.3457 48.396C23.3175 48.474 22.4657 47.6916 22.357 46.6886C22.3531 46.6886 22.3491 46.6886 22.3451 46.6886C10.0162 46.6885 0.0611458 36.6896 0.0611458 24.4045C0.0611458 12.1195 10.0162 2.12049 22.3451 2.12049C22.3491 2.12049 22.3531 2.1205 22.3571 2.1205Z" fill="white"/>
</svg>
